# xmcd
#
# Track frame offsets: 
#        150
#        13550
#        27950
#        39788
#        50588
#        63150
#        77425
#        89625
#        102650
#        115125
#        126100
#        140175
#        154713
#        167275
#        180100
#        194175
#        207650
#        220050
#
# Disc length: 3084 seconds
#
# Revision: 4
# Processed by: cddbd v1.5.1PL0 Copyright (c) Steve Scherf et al.
# Submitted via: ExactAudioCopy v0.95a3
#
DISCID=f50c0a12
DTITLE=Various Artist - Feeling The Blues Diggin' The Rythm
DYEAR=1900
DGENRE=
TTITLE0=Muddy Waters - Mannish Boy
TTITLE1=Howlin' Wolf - Smokestack Lightnin'
TTITLE2=Little Walter - My Babe
TTITLE3=Sonny Boy Williamson - Let Your Conscience Be Your Guide
TTITLE4=John Lee Hooker - I'm In The Mood
TTITLE5=Little Milton - I'm Gonna Move To The Outskirts Of Town
TTITLE6=Buddy Guy - Ten Years Ago
TTITLE7=Albert King - Calafornia Blues
TTITLE8=Otis Spann - It Must've Been The Devil
TTITLE9=Otis Rush - I'm Satisfied
TTITLE10=Willie Dixon - Walkin' The Blues
TTITLE11=Willie Mabon - I Don't Know
TTITLE12=Chuck Berry - The Things I Used To Do
TTITLE13=Bo Diddley - I'm A Man
TTITLE14=Muddy Waters - I'm Ready
TTITLE15=Little Walter - Mean Old World
TTITLE16=Jimmy Witherspoon - Ain't Nobody's Business
TTITLE17=Howlin' Wolf - Sitting On Top Of The World
EXTD=
EXTT0=
EXTT1=
EXTT2=
EXTT3=
EXTT4=
EXTT5=
EXTT6=
EXTT7=
EXTT8=
EXTT9=
EXTT10=
EXTT11=
EXTT12=
EXTT13=
EXTT14=
EXTT15=
EXTT16=
EXTT17=
PLAYORDER=
